<svg width="244" height="45" viewBox="0 0 244 45" fill="none" xmlns="http://www.w3.org/2000/svg">
<path d="M112.989 20.8369V43.8569H119.543V22.413C119.543 20.6019 121.011 19.1335 122.822 19.1335H129.597V12.6626H121.168C116.65 12.6626 112.989 16.319 112.989 20.8369Z" fill="#1F1F1F"/>
<path d="M28.0893 11.9824C20.5905 11.9824 14.7951 17.4548 14.7951 24.283V34.327C14.7707 34.8508 14.5308 35.3794 14.242 35.8444C13.498 37.0534 12.2596 37.7387 10.8451 37.7387H10.7814C9.38152 37.7387 8.0942 36.9898 7.39914 35.7759L7.27188 35.5507C6.99288 35.0661 6.84603 34.5179 6.84603 33.9599V32.9124H6.85093V12.6726H0.115735V29.8336H0.11084V33.5536C0.11084 35.399 0.600316 37.2149 1.52053 38.8008L1.62822 38.9917C3.49312 42.2174 6.95861 44.1802 10.6884 44.234C10.7423 44.234 10.7961 44.234 10.85 44.234C14.5161 44.234 17.8446 42.3789 19.7731 39.256C20.3947 38.2477 20.8646 37.1415 21.129 35.9961C21.3003 35.2521 21.3492 34.4836 21.3492 33.7201V25.1591C21.3492 22.5062 22.6316 17.9785 28.0893 17.9785C31.7114 17.9785 34.0805 20.6608 34.0805 25.1591V43.8229H40.7619V24.283C40.7619 16.9751 34.9567 11.9824 28.0893 11.9824Z" fill="#1F1F1F"/>
<path d="M58.9704 36.9504L50.6836 12.6772H43.6938L54.0218 40.7585C54.7805 42.8192 56.7433 44.1897 58.941 44.1897C61.1339 44.1897 63.0967 42.8241 63.8554 40.7683L74.247 12.6772H67.1936L58.9704 36.9504Z" fill="#1F1F1F"/>
<path d="M91.809 11.9824C82.5677 11.9824 76.4541 18.9721 76.4541 28.2135C76.4541 37.3911 82.5726 44.4445 91.809 44.4445C101.045 44.4445 107.164 37.3911 107.164 28.2135C107.164 18.977 101.045 11.9824 91.809 11.9824ZM91.809 38.326C86.8163 38.326 83.0082 34.0186 83.0082 28.2135C83.0082 22.3446 86.8163 18.1009 91.809 18.1009C96.8653 18.1009 100.61 22.3446 100.61 28.2135C100.61 34.0186 96.8653 38.326 91.809 38.326Z" fill="#1F1F1F"/>
<path d="M3.45836 6.68625H3.5122C5.35753 6.68625 6.85532 5.18845 6.85532 3.34312C6.85532 1.4978 5.35753 0 3.5122 0H3.45836C1.61303 0 0.115234 1.4978 0.115234 3.34312C0.115234 5.18845 1.61303 6.68625 3.45836 6.68625Z" fill="#1F1F1F"/>
<path d="M138.339 6.68625H138.393C140.238 6.68625 141.736 5.18845 141.736 3.34312C141.736 1.4978 140.238 0 138.393 0H138.339C136.494 0 134.996 1.4978 134.996 3.34312C134.996 5.18845 136.494 6.68625 138.339 6.68625Z" fill="#1F1F1F"/>
<path d="M240.473 37.249H240.419C238.574 37.249 237.076 38.7468 237.076 40.5921C237.076 42.4375 238.574 43.9353 240.419 43.9353H240.473C242.318 43.9353 243.816 42.4375 243.816 40.5921C243.816 38.7468 242.318 37.249 240.473 37.249Z" fill="#1F1F1F"/>
<path d="M218.74 11.9824C214.766 11.9824 211.286 13.5292 208.877 15.9863C206.533 13.4655 203.126 11.9824 199.391 11.9824C191.893 11.9824 186.097 17.4548 186.097 24.2781V43.818H192.651V25.1591C192.651 22.5062 193.934 17.9785 199.391 17.9785C203.013 17.9785 205.383 20.6608 205.383 25.1591V43.8229H205.446H212H212.064V24.283C212.064 24.2438 212.059 24.2095 212.059 24.1704C212.358 21.5174 213.914 17.9785 218.74 17.9785C222.362 17.9785 224.732 20.6608 224.732 25.1591V43.8229H231.413V24.283C231.413 16.9751 225.608 11.9824 218.74 11.9824Z" fill="#1F1F1F"/>
<path d="M166.43 11.9189C157.463 11.9189 151.731 18.8157 151.702 28.2675H151.697V32.7021C151.697 33.8426 151.29 34.9537 150.556 35.8299C149.631 36.9312 148.275 37.5626 146.836 37.5675H146.831C145.392 37.5675 144.036 36.9361 143.106 35.8299C142.367 34.9537 141.966 33.8426 141.966 32.6972V23.5832H141.961V12.6532H135.324V32.8441H135.334C135.368 35.497 136.322 38.0717 138.04 40.1079C140.233 42.7119 143.439 44.1999 146.836 44.1999H146.846C150.253 44.195 153.459 42.6972 155.647 40.0932C155.696 40.0345 155.74 39.9659 155.789 39.9023C158.427 42.7462 162.22 44.3761 166.807 44.3761C172.176 44.3761 176.919 41.9385 179.103 38.1353L174.11 35.0761C172.798 37.0095 170.488 38.6346 167.056 38.6346C162.064 38.6346 158.819 35.5753 158.128 30.2694H179.979C181.163 19.9708 176.357 11.9189 166.43 11.9189ZM158.187 25.404C159 20.661 161.932 17.6018 166.489 17.6018C171.609 17.6018 174.041 21.5959 174.041 25.404H158.187Z" fill="#1F1F1F"/>
</svg>
